<svg width="80" height="80" viewBox="0 0 80 80" fill="none" xmlns="http://www.w3.org/2000/svg">
<path d="M30.0003 66.6666L25.3337 61.9999L31.167 55.9999C24.0559 55.0555 18.1948 53.111 13.5837 50.1666C8.97255 47.2221 6.66699 43.8333 6.66699 39.9999C6.66699 35.3888 9.87533 31.4583 16.292 28.2083C22.7087 24.9583 30.6114 23.3333 40.0003 23.3333C49.3892 23.3333 57.292 24.9583 63.7087 28.2083C70.1253 31.4583 73.3337 35.3888 73.3337 39.9999C73.3337 43.4444 71.4864 46.5277 67.792 49.2499C64.0975 51.9721 59.2781 53.9999 53.3337 55.3333V48.4999C57.6114 47.3888 60.9031 46.0138 63.2087 44.3749C65.5142 42.736 66.667 41.2777 66.667 39.9999C66.667 38.2221 64.292 36.111 59.542 33.6666C54.792 31.2221 48.2781 29.9999 40.0003 29.9999C31.7225 29.9999 25.2087 31.2221 20.4587 33.6666C15.7087 36.111 13.3337 38.2221 13.3337 39.9999C13.3337 41.3333 14.7503 42.9305 17.5837 44.7916C20.417 46.6527 24.4448 48.0555 29.667 48.9999L25.3337 44.6666L30.0003 39.9999L43.3337 53.3333L30.0003 66.6666Z" fill="#E8EAED"/>
</svg>
